<?xml version="1.0" encoding="utf-8"?>
<!-- Generator: Adobe Illustrator 15.0.0, SVG Export Plug-In . SVG Version: 6.00 Build 0)  -->
<!DOCTYPE svg PUBLIC "-//W3C//DTD SVG 1.1//EN" "http://www.w3.org/Graphics/SVG/1.1/DTD/svg11.dtd">
<svg version="1.1" id="Layer_1" xmlns="http://www.w3.org/2000/svg" xmlns:xlink="http://www.w3.org/1999/xlink" x="0px" y="0px"
	 width="50px" height="50px" viewBox="0 0 50 50" enable-background="new 0 0 50 50" xml:space="preserve">
<g>
	<path fill="#68E1EA" d="M43.552,34.646c-2.027,2.23-8.212,10.443-2.94,12.471c2.13,0.812,5.07-0.404,5.476-2.736
		c0.507-2.23-1.115-4.462-1.926-6.488c-0.305-1.116-0.711-2.535-0.508-3.347"/>
</g>
<path fill="#143469" d="M15,42.087C15,43.144,14.144,44,13.088,44H5.912C4.856,44,4,43.144,4,42.087V2.913C4,1.856,4.856,1,5.912,1
	h7.176C14.144,1,15,1.856,15,2.913V42.087z"/>
<path fill="#143469" stroke="#143469" stroke-miterlimit="10" d="M43.5,24.588c0,1.056-0.856,1.912-1.912,1.912H21.412
	c-1.056,0-1.912-0.856-1.912-1.912v-3.176c0-1.056,0.856-1.912,1.912-1.912h20.176c1.056,0,1.912,0.856,1.912,1.912V24.588z"/>
<path fill="#143469" stroke="#143469" stroke-miterlimit="10" d="M45.5,29.588c0,1.056-0.974,1.912-2.174,1.912h-1.652
	c-1.2,0-2.174-0.856-2.174-1.912v-8.176c0-1.056,0.974-1.912,2.174-1.912h1.652c1.2,0,2.174,0.856,2.174,1.912V29.588z"/>
<path fill="#143469" stroke="#FFFFFF" stroke-width="1.0569" stroke-miterlimit="10" d="M46.827,32.58
	c0.005,0.484-0.161,0.878-0.372,0.88l-8.174,0.082c-0.211,0.002-0.385-0.389-0.39-0.873l-0.032-3.246
	c-0.005-0.484,0.161-0.878,0.372-0.88l8.174-0.082c0.211-0.002,0.385,0.389,0.39,0.873L46.827,32.58z"/>
<path fill="#143469" stroke="#FFFFFF" stroke-miterlimit="10" d="M20.5,28.838c0,0.365-0.393,0.662-0.876,0.662h-3.247
	c-0.484,0-0.876-0.297-0.876-0.662V15.162c0-0.366,0.393-0.662,0.876-0.662h3.247c0.484,0,0.876,0.296,0.876,0.662V28.838z"/>
</svg>
