<?xml version="1.0" encoding="utf-8"?>
<!-- Generator: Adobe Illustrator 15.0.0, SVG Export Plug-In . SVG Version: 6.00 Build 0)  -->
<!DOCTYPE svg PUBLIC "-//W3C//DTD SVG 1.1//EN" "http://www.w3.org/Graphics/SVG/1.1/DTD/svg11.dtd">
<svg version="1.1" id="Layer_1" xmlns="http://www.w3.org/2000/svg" xmlns:xlink="http://www.w3.org/1999/xlink" x="0px" y="0px"
	 width="50px" height="62.5px" viewBox="0 0 100 125" enable-background="new 0 0 100 125" xml:space="preserve">
<path fill="#143469" d="M55,6.1C55,7.149,54.413,8,53.688,8h-6.377C46.587,8,46,7.149,46,6.1V4.9C46,3.851,46.587,3,47.312,3h6.377
	C54.413,3,55,3.851,55,4.9V6.1z"/>
<path fill="none" stroke="#143469" stroke-miterlimit="10" d="M61.5,33.516c0,1.096-1.096,1.984-2.447,1.984H39.947
	c-1.352,0-2.447-0.888-2.447-1.984v-1.032c0-1.096,1.096-1.984,2.447-1.984h19.105c1.352,0,2.447,0.888,2.447,1.984V33.516z"/>
<path fill="#143469" d="M61,27.383C61,29.38,59.548,31,57.756,31H40.244C38.453,31,37,29.38,37,27.383v-3.766
	C37,21.62,38.453,20,40.244,20h17.512C59.548,20,61,21.62,61,23.617V27.383z"/>
<path fill="#143469" d="M50,25.1c0,1.049-0.546,1.9-1.22,1.9H46.22C45.546,27,45,26.149,45,25.1V4.9C45,3.851,45.546,3,46.22,3
	h2.561C49.454,3,50,3.851,50,4.9V25.1z"/>
<path fill="#68E1EA" d="M69,119.487c0,1.388-1.144,2.513-2.554,2.513H32.554c-1.41,0-2.554-1.125-2.554-2.513V87.513
	C30,86.125,31.144,85,32.554,85h33.893C67.856,85,69,86.125,69,87.513V119.487z"/>
<rect x="30" y="82" fill="#68E1EA" width="39" height="7"/>
<path fill="none" stroke="#143469" stroke-miterlimit="10" d="M41.5,109.363c0,0.628-0.302,1.137-0.675,1.137h-0.65
	c-0.373,0-0.675-0.509-0.675-1.137V67.637c0-0.628,0.302-1.137,0.675-1.137h0.65c0.373,0,0.675,0.509,0.675,1.137V109.363z"/>
<path fill="none" stroke="#143469" stroke-miterlimit="10" d="M60.923,42.969c-0.559-2.41-0.902-4.838-1.089-7.274H39.783
	c-1.785,8.185-5.011,17.31-9.604,23.78v59.747c0,1.73,1.118,3.132,2.499,3.132h34.156c1.382,0,2.499-1.401,2.499-3.132V58.955
	C65.507,54.604,62.405,49.36,60.923,42.969z"/>
<path fill="none" stroke="#FFFFFF" stroke-miterlimit="10" d="M41.5,28.458c0,0.576-0.644,1.042-1.438,1.042h-0.124
	c-0.794,0-1.438-0.466-1.438-1.042v-5.916c0-0.576,0.644-1.042,1.438-1.042h0.124c0.794,0,1.438,0.466,1.438,1.042V28.458z"/>
<path fill="none" stroke="#FFFFFF" stroke-miterlimit="10" d="M44.5,28.458c0,0.576-0.644,1.042-1.438,1.042h-0.123
	c-0.794,0-1.438-0.466-1.438-1.042v-5.916c0-0.576,0.644-1.042,1.438-1.042h0.123c0.794,0,1.438,0.466,1.438,1.042V28.458z"/>
<path fill="none" stroke="#FFFFFF" stroke-miterlimit="10" d="M47.5,28.458c0,0.576-0.644,1.042-1.438,1.042h-0.123
	c-0.794,0-1.438-0.466-1.438-1.042v-5.916c0-0.576,0.644-1.042,1.438-1.042h0.123c0.794,0,1.438,0.466,1.438,1.042V28.458z"/>
<path fill="none" stroke="#FFFFFF" stroke-miterlimit="10" d="M50.5,28.458c0,0.576-0.644,1.042-1.438,1.042h-0.124
	c-0.794,0-1.438-0.466-1.438-1.042v-5.916c0-0.576,0.644-1.042,1.438-1.042h0.124c0.794,0,1.438,0.466,1.438,1.042V28.458z"/>
<path fill="none" stroke="#FFFFFF" stroke-miterlimit="10" d="M53.5,28.458c0,0.576-0.644,1.042-1.438,1.042h-0.125
	c-0.794,0-1.438-0.466-1.438-1.042v-5.916c0-0.576,0.644-1.042,1.438-1.042h0.125c0.794,0,1.438,0.466,1.438,1.042V28.458z"/>
<path fill="none" stroke="#FFFFFF" stroke-miterlimit="10" d="M56.5,28.458c0,0.576-0.644,1.042-1.438,1.042h-0.123
	c-0.795,0-1.438-0.466-1.438-1.042v-5.916c0-0.576,0.644-1.042,1.438-1.042h0.123c0.795,0,1.438,0.466,1.438,1.042V28.458z"/>
<path fill="none" stroke="#FFFFFF" stroke-miterlimit="10" d="M59.5,28.458c0,0.576-0.644,1.042-1.438,1.042h-0.125
	c-0.794,0-1.438-0.466-1.438-1.042v-5.916c0-0.576,0.644-1.042,1.438-1.042h0.125c0.794,0,1.438,0.466,1.438,1.042V28.458z"/>
</svg>
