<?xml version="1.0" encoding="utf-8"?>
<!-- Generator: Adobe Illustrator 15.0.0, SVG Export Plug-In . SVG Version: 6.00 Build 0)  -->
<!DOCTYPE svg PUBLIC "-//W3C//DTD SVG 1.1//EN" "http://www.w3.org/Graphics/SVG/1.1/DTD/svg11.dtd">
<svg version="1.1" id="Layer_1" xmlns="http://www.w3.org/2000/svg" xmlns:xlink="http://www.w3.org/1999/xlink" x="0px" y="0px"
	 width="50px" height="50px" viewBox="0 0 50 50" enable-background="new 0 0 50 50" xml:space="preserve">
<path fill="#68E1EA" d="M25.576,16.23c-9.157,0-16.729,1.185-18.244,2.739c-0.031,0.219-0.075,0.437-0.112,0.655
	c-0.006,0.117-0.011,0.235-0.017,0.352c1.209,1.618,8.964,2.868,18.373,2.868c10.249,0,18.558-1.481,18.558-3.307
	C44.134,17.711,35.824,16.23,25.576,16.23z"/>
<g>
	<path d="M11.381,20.896c4.581,2.033,9.476,2.76,14.747,2.397c5.082-0.364,11.296-0.104,15.562-2.917
		c0.44,0.781,0.565,1.928,0.88,2.813c0.188,0.519,0.628,1.249,0.628,1.718c0,1.196-2.699,1.822-3.952,2.083
		c-3.704,0.938-7.782,1.353-11.673,1.198c-3.013-0.106-6.967,0.261-9.853-0.677c-1.256-0.365-2.447-1.096-3.891-1.356
		c-0.627-0.102-1.444,0-2.071-0.206c-0.628-0.156-1.129-0.782-1.756-0.573c-0.314-1.303-0.126-1.928,0.501-3.179
		c0.942-2.029,1.757-1.144,3.641-0.363c2.196,0.988,4.706,1.301,7.091,1.98c3.012,0.884,6.212,0.675,9.349,0.728
		c1.255,0.052,9.603-0.988,8.975-2.708"/>
	<g>
		<path d="M10.652,23.542c5.505,2.253,10.99,2.771,16.888,2.409c5.416-0.333,10.709-0.437,15.534-3.206
			c-1.344-0.547-2.688-1.093-4.031-1.64c0.409,1.149,0.669,2.354,1.157,3.469c0.082-0.244,0.165-0.488,0.248-0.731
			c-0.635,0.204-1.279,0.372-1.933,0.501c-3.639,0.823-7.217,1.17-10.943,1.1c-3.063-0.058-6.127,0.177-9.124-0.579
			c-2.61-0.659-5.047-1.679-7.719-2.136c0.671,0.882,1.343,1.764,2.015,2.646c-0.352-2.653,0.156-1.093,2.02-0.376
			c1.819,0.7,3.854,0.975,5.739,1.461c3.561,0.919,7.448,1.039,11.103,0.773c3.401-0.248,10.608-0.748,10.694-5.4
			c0.065-3.542-5.423-3.535-5.488,0c0.939-1.302,0.829-1.631-0.33-0.987c-0.64,0.182-1.286,0.337-1.939,0.463
			c-1.17,0.253-2.36,0.394-3.553,0.48c-4.595,0.334-8.935-0.61-13.361-1.675c-2.119-0.509-5.116-2.812-7.367-1.518
			c-2.331,1.34-3.348,4.201-3.006,6.778c0.15,1.134,0.717,2.425,2.015,2.646c3.528,0.603,6.857,2.155,10.407,2.661
			c4.702,0.67,9.937,0.446,14.643-0.035c3.219-0.33,7.252-0.795,9.971-2.721c2.916-2.066,0.973-5.675,0.044-8.282
			c-0.593-1.662-2.408-2.572-4.031-1.64c-3.909,2.243-8.383,2.238-12.765,2.456c-5.451,0.271-10.334-0.127-15.429-2.212
			C8.834,16.909,7.422,22.221,10.652,23.542L10.652,23.542z"/>
	</g>
</g>
<g>
	<path d="M9.502,20.398c-0.771,1.332-1.009,2.662-1.424,4.042C8.02,24.678,7.9,24.916,7.841,25.153
		c-0.058,0.617-0.117,0.381,0.238,0.759c0.474,0.428,1.483,0.809,2.135,1c2.964,0.901,6.877,1.282,10.02,1.189
		c1.661-0.048,3.261-0.048,4.863-0.098c1.364,0,5.454,0.143,6.285-0.807"/>
	<g>
		<path fill="#231F20" d="M7.148,19.022c-0.917,1.973-2.594,5.065-1.972,7.326c0.747,2.714,4.798,3.375,7.046,3.84
			c4.23,0.875,8.591,0.642,12.875,0.543c2.546-0.059,5.416,0.255,7.661-1.179c2.954-1.886,0.222-6.607-2.752-4.709
			c-2.094,1.336-7.428,0.481-9.772,0.532c-2.208,0.048-4.379-0.104-6.562-0.446c-0.924-0.163-1.834-0.378-2.733-0.646
			c-0.077,0.294-0.154,0.588-0.231,0.882c0.282-1.164,0.665-2.293,1.149-3.391C13.33,18.607,8.63,15.835,7.148,19.022L7.148,19.022z
			"/>
	</g>
</g>
<g>
	<path d="M7.142,26.137c10.574,4.815,25.033,4.748,36.018,1.301"/>
	<g>
		<path fill="#231F20" d="M5.748,28.522c12.023,5.154,25.682,5.273,38.147,1.579c3.408-1.011,1.956-6.343-1.469-5.328
			c-10.911,3.234-23.289,3.523-33.889-1.022C5.299,22.363,2.481,27.122,5.748,28.522L5.748,28.522z"/>
	</g>
</g>
<g>
	<g>
		<path fill="#FFFFFF" d="M23.188,26.978c0.857,0.021,0.861-0.834,0.562-1.401c-0.265-0.503-0.708-1.091-1.2-1.395
			c-0.227-0.14-0.501-0.079-0.69,0.089c-0.582,0.519-0.337,1.403-0.042,2.003c0.344,0.698,1.053,1.269,1.86,1.084
			c0.852-0.194,0.459-1.252,0.182-1.732c-0.292-0.503-0.797-1.247-1.464-0.945c-0.668,0.302-0.089,1.283,0.575,0.983
			c-0.42,0.189-0.625-0.148-0.361,0.151c0.083,0.094,0.15,0.202,0.218,0.307c0.067,0.104,0.14,0.219,0.188,0.333
			c0.028,0.067,0.047,0.137,0.064,0.208c-0.038-0.161,0.395-0.399,0.227-0.397c-0.208,0.002-0.427-0.423-0.505-0.566
			c-0.076-0.139-0.117-0.291-0.151-0.444c-0.008-0.039-0.016-0.098-0.011-0.13c0.026-0.179-0.094,0.059,0.026-0.048
			c-0.23,0.029-0.46,0.059-0.69,0.089c0.072,0.044,0.351,0.348,0.482,0.519c0.096,0.125,0.184,0.257,0.266,0.392
			c0.004,0.007,0.082,0.142,0.084,0.147c0.08,0.194-0.106-0.396,0.38-0.384C22.453,25.821,22.455,26.96,23.188,26.978L23.188,26.978
			z"/>
	</g>
</g>
<g>
	<g>
		<path fill="#FFFFFF" d="M25.767,25.08c-0.163-0.193-0.373-0.527-0.527-0.806c-0.07-0.126-0.308-0.714-0.294-0.722
			c0.417-0.259,0.245,1.514,0.181,1.72c0.347-0.045,0.693-0.091,1.04-0.136c-0.302-0.516-0.519-1.087-0.735-1.644
			c-0.263-0.677-1.364-0.383-1.098,0.303c0.251,0.646,0.5,1.317,0.85,1.917c0.255,0.435,0.897,0.33,1.041-0.136
			c0.379-1.228,0.229-3.462-1.562-3.121c-0.825,0.157-0.924,1.064-0.708,1.721c0.206,0.623,0.588,1.21,1.007,1.711
			C25.434,26.448,26.234,25.639,25.767,25.08L25.767,25.08z"/>
	</g>
</g>
<g>
	<g>
		<path fill="#FFFFFF" d="M30.829,26.472c-0.025-0.515-0.027-1.422,0.31-1.805c-0.063,0.072-0.115-0.032,0.069,0.083
			c0.051,0.032-0.056,0.275-0.079,0.325c-0.186,0.394-0.521,0.792-0.873,1.047c0.285,0.163,0.571,0.327,0.856,0.491
			c0.072-0.588,0.263-1.179,0.424-1.748c0.201-0.708-0.897-1.008-1.098-0.303c-0.191,0.673-0.38,1.354-0.465,2.05
			c-0.051,0.415,0.527,0.729,0.856,0.491c0.628-0.453,1.135-1.068,1.425-1.787c0.305-0.755-0.162-1.634-0.98-1.758
			c-1.442-0.219-1.632,1.924-1.584,2.914C29.726,27.202,30.865,27.206,30.829,26.472L30.829,26.472z"/>
	</g>
</g>
<g>
	<g>
		<path fill="#FFFFFF" d="M28.349,25.025c-0.126-0.499-0.318-0.988-0.362-1.504c-0.016-0.181-0.005-0.372,0.115-0.519
			c0.074-0.091,0.048-0.01-0.09,0.001c-0.144,0.011-0.168-0.089-0.126-0.031c0.292,0.404,0.377,1.431-0.09,1.744
			c0.255,0.104,0.51,0.207,0.765,0.311c-0.216-0.732-0.14-1.471-0.082-2.221c0.052-0.67-0.987-0.664-1.041,0
			c-0.041,0.502,0,1.002,0.002,1.504c0.003,0.671,1.044,0.671,1.041,0c-0.002-0.502-0.043-1.002-0.002-1.504
			c-0.347,0-0.694,0-1.041,0c-0.064,0.845-0.123,1.673,0.119,2.497c0.091,0.307,0.479,0.503,0.765,0.311
			c1.01-0.677,1.134-2.548,0.27-3.406c-0.507-0.503-1.142-0.143-1.449,0.368c-0.493,0.82-0.006,1.895,0.203,2.725
			C27.509,25.952,28.513,25.676,28.349,25.025L28.349,25.025z"/>
	</g>
</g>
<g>
	<g>
		<path fill="#FFFFFF" d="M24.347,29.413c0.958-0.684,1.79-2.039,3.05-2.144c1.045-0.087,1.899,1.361,1.911,2.263
			c0.006,0.508-1.079-0.319-1.197-0.422c-0.376-0.329-0.752-0.464-1.246-0.468c-0.489-0.004-0.911,0.364-1.267,0.651
			c-0.292,0.235-0.585,0.331-0.952,0.35c-0.083,0.004,0.542-0.567,0.599-0.612c0.574-0.457-0.237-1.257-0.806-0.805
			c-0.604,0.48-1.249,1.029-0.905,1.9c0.294,0.747,1.193,0.705,1.839,0.549c0.399-0.097,0.712-0.33,1.029-0.576
			c0.75-0.583,1.122,0.1,1.74,0.458c0.6,0.348,1.474,0.384,1.98-0.124c1.064-1.068-0.31-3.015-1.154-3.702
			c-2.059-1.673-3.645,0.59-5.197,1.699C23.18,28.853,23.748,29.841,24.347,29.413L24.347,29.413z"/>
	</g>
</g>
<g>
	<g>
		<path fill="#FFFFFF" d="M26.54,27.003c-1.016,0.814-2.291,1.269-3.177,2.25c0.269,0.269,0.537,0.536,0.806,0.805
			c0.245-0.28,0.44-0.574,0.626-0.897c0.21-0.364-0.054-0.87-0.492-0.856c-1.489,0.047-1.505,2.023-0.048,2.115
			c1.425,0.09,2.486-1.48,3.431-2.317c0.521-0.461-0.141-1.141-0.689-0.894c-0.921,0.413-1.953,1.03-2.264,2.051
			c-0.106,0.35,0.185,0.729,0.549,0.721c1.251-0.03,2.562-1.16,2.943-2.323c0.135-0.409-0.297-0.825-0.7-0.7
			c-0.673,0.209-1.127,0.664-1.514,1.239c-0.237,0.351,0.073,0.879,0.491,0.856c0.948-0.051,1.482-0.771,1.819-1.592
			c0.279-0.68-0.822-0.972-1.098-0.303c-0.122,0.296-0.349,0.736-0.722,0.756c0.164,0.285,0.328,0.571,0.491,0.856
			c0.215-0.317,0.455-0.598,0.834-0.716c-0.233-0.233-0.467-0.467-0.7-0.7c-0.22,0.668-1.124,1.47-1.846,1.487
			c0.183,0.24,0.366,0.48,0.549,0.721c0.21-0.69,1.134-1.098,1.74-1.371c-0.229-0.298-0.46-0.596-0.689-0.894
			c-0.43,0.38-0.816,0.807-1.235,1.197c-0.25,0.233-0.515,0.441-0.805,0.622c-0.099,0.062-0.204,0.111-0.316,0.146
			c-0.044,0.009-0.089,0.018-0.134,0.026c-0.163-0.085-0.192-0.034-0.088,0.153c-0.164-0.285-0.328-0.571-0.492-0.856
			c-0.137,0.237-0.266,0.458-0.449,0.667c-0.48,0.549,0.311,1.353,0.806,0.805c0.872-0.966,2.168-1.441,3.176-2.25
			C27.918,27.349,27.106,26.548,26.54,27.003L26.54,27.003z"/>
	</g>
</g>
<g>
	<g>
		<path fill="#FFFFFF" d="M27.274,26.662c-0.462,0.467-1.128,1.357-0.504,1.981c0.657,0.657,1.27-0.278,1.407-0.843
			c0.111-0.456-0.401-0.937-0.836-0.643c-0.583,0.394-1.276,1.345-0.393,1.862c0.84,0.493,1.685-0.554,2.049-1.18
			c0.255-0.437-0.161-0.961-0.643-0.836c-0.755,0.195-1.368,0.74-1.521,1.521c-0.077,0.392,0.165,0.678,0.549,0.721
			c0.88,0.099,1.451-0.579,1.721-1.347c0.207-0.587-0.554-0.886-0.951-0.554c-0.493,0.41-0.806,0.791-0.928,1.425
			c-0.083,0.427,0.257,0.808,0.7,0.7c0.666-0.161,1.156-0.53,1.619-1.026c0.431-0.46-0.128-1.253-0.689-0.894
			c-0.49,0.312-0.836,0.682-1.132,1.182c-0.32,0.538,0.289,0.986,0.778,0.778c0.387-0.164,0.674-0.36,0.993-0.626
			c0.506-0.419-0.146-1.221-0.689-0.894c-0.386,0.231-0.637,0.467-0.888,0.84c-0.305,0.45,0.193,0.921,0.643,0.836
			c0.489-0.093,0.78-0.289,1.133-0.636c0.526-0.516-0.271-1.308-0.805-0.805c-0.332,0.312-0.506,0.596-0.636,1.032
			c-0.1,0.335,0.181,0.75,0.549,0.721c0.469-0.037,0.77-0.148,1.165-0.422c0.6-0.413,0.079-1.335-0.574-0.982
			c-0.408,0.219-0.664,0.433-0.886,0.841c-0.158,0.289-0.039,0.782,0.34,0.836c0.468,0.066,0.776,0.03,1.17-0.254
			c-0.229-0.298-0.46-0.596-0.689-0.894c-0.146,0.13-0.293,0.261-0.438,0.393c0.317,0.185,0.634,0.369,0.951,0.554
			c0.298-1.108-0.916-2.241-1.615-2.948c-1.463-1.48-2.551-0.505-3.925,0.545c-0.699,0.533-2.146,1.955-0.98,2.811
			c0.858,0.63,2.125,0.017,2.65-0.761c0.413-0.61-0.575-1.18-0.983-0.574c-0.18,0.267-1.327,0.828-0.721,0.069
			c0.434-0.543,1.094-0.922,1.646-1.334c0.816-0.607,1.292-0.184,1.792,0.341c0.264,0.277,1.16,1.1,1.04,1.549
			c-0.153,0.57,0.536,0.927,0.951,0.554c0.146-0.131,0.292-0.262,0.438-0.393c0.479-0.427-0.163-1.273-0.689-0.894
			c-0.098,0.046-0.195,0.092-0.293,0.139c0.113,0.278,0.227,0.558,0.34,0.836c0.159-0.144,0.318-0.288,0.478-0.433
			c-0.191-0.327-0.383-0.655-0.574-0.982c-0.165,0.16-0.361,0.249-0.591,0.266c0.183,0.24,0.366,0.48,0.549,0.721
			c0.114-0.177,0.229-0.354,0.343-0.53c-0.269-0.269-0.536-0.536-0.805-0.805c-0.211,0.114-0.421,0.229-0.631,0.343
			c0.214,0.278,0.429,0.558,0.643,0.836c0.16-0.144,0.32-0.287,0.479-0.432c-0.229-0.298-0.46-0.596-0.689-0.894
			c-0.226,0.202-0.479,0.352-0.763,0.448c0.26,0.259,0.52,0.519,0.778,0.778c0.159-0.335,0.4-0.593,0.724-0.773
			c-0.229-0.298-0.46-0.596-0.689-0.894c-0.334,0.356-0.627,0.614-1.117,0.733c0.233,0.233,0.467,0.467,0.7,0.7
			c0.093-0.402,0.305-0.71,0.635-0.923c-0.317-0.185-0.634-0.369-0.951-0.554c-0.208,0.17-0.415,0.341-0.623,0.511
			c0.183,0.24,0.366,0.48,0.549,0.721c0.078-0.403,0.32-0.646,0.727-0.726c-0.214-0.278-0.429-0.558-0.643-0.836
			c-0.074,0.138-0.162,0.267-0.263,0.387c-0.283,0.179-0.229,0.341,0.163,0.487c-0.278-0.214-0.558-0.429-0.836-0.643
			c0.419,0.532,0.753,0.521,0.999-0.031C28.597,26.945,27.791,26.14,27.274,26.662L27.274,26.662z"/>
	</g>
</g>
<g>
	<path d="M8.078,24.755C7.994,24.755,8.078,24.755,8.078,24.755"/>
	<g>
		<path fill="#231F20" d="M8.078,27.481c3.517,0,3.517-5.453,0-5.453S4.561,27.481,8.078,27.481L8.078,27.481z"/>
	</g>
</g>
<path fill="#68E1EA" d="M43.441,18.14c-1.433-1.023-8.948-1.806-18.034-1.806c-8.91,0-16.306,0.754-17.937,1.749
	c-0.023,0.258-0.042,0.515-0.079,0.772c1.461,1.021,8.954,1.8,18.016,1.8c9.331,0,17.013-0.825,18.142-1.891
	C43.503,18.556,43.47,18.348,43.441,18.14z"/>
<path stroke="#231F20" stroke-width="1.6569" stroke-miterlimit="10" d="M44.236,21.797c0.655,2.164,0.543,4.977,0.458,7.28"/>
<path d="M43.834,20.783c1.462,1.782,2.195,3.938,2.646,6.226c0.215,1.086,0.213,1.987-0.951,2.479
	c-0.983,0.418-2.473,0.751-3.559,0.788"/>
<path stroke="#231F20" stroke-width="2.0301" stroke-miterlimit="10" d="M7.828,21.201c-0.347,0.984-0.839,1.912-1.199,2.892
	c-0.196,0.533-0.348,2.391-0.743,2.552c-0.152-0.367-0.311-0.809-0.258-1.214c0.04-0.301,0.369-1.217,0.507-0.93"/>
</svg>
